<svg xmlns="http://www.w3.org/2000/svg" viewBox="0 0 47.99 25.66"><defs><style>.cls-1{fill:none;stroke:#262320;stroke-miterlimit:10;stroke-width:2px;}</style></defs><g id="Camada_2" data-name="Camada 2"><g id="Camada_1-2" data-name="Camada 1"><path class="cls-1" d="M46,13.51l-.48-7H33.12m6.69,3.16V12.9l7.18.7v7.84H41.56m-2.94-2.17h-5.5m0,0V2.83s5.11-.11,7.67,3.64m-7.67,12.8h-7v2.17H20.66m12.46-2.17v3.38h-7V21.44m-13,0h2.07M1,1H33.12V19.27H1ZM15.27,22A2.7,2.7,0,1,0,18,19.27,2.7,2.7,0,0,0,15.27,22ZM7.69,22a2.7,2.7,0,1,0,5.39,0h0a2.7,2.7,0,0,0-5.39,0Zm28.54,0a2.7,2.7,0,1,0,2.69-2.7A2.7,2.7,0,0,0,36.23,22Z"/></g></g></svg>