<svg xmlns="http://www.w3.org/2000/svg" viewBox="0 0 68.51 29.98"><defs><style>.cls-1{fill:none;}.cls-2{fill:#262320;}.cls-3{fill:#fff;}</style></defs><g id="Camada_2" data-name="Camada 2"><g id="Camada_1-2" data-name="Camada 1"><path class="cls-1" d="M3.07,15.75l4.11-.4V13h2v4.17L2,17.87V23.8H5.7a3.69,3.69,0,0,1,3.37-2.18h4.81V10.83H3.4Z"/><path class="cls-1" d="M13.88,8.83V7.25A9.44,9.44,0,0,0,9.56,8.83Z"/><path class="cls-1" d="M58.93,5,62,9,59.76,4.22a1.73,1.73,0,0,0-2.11-.69L48.27,7.09V9Z"/><circle class="cls-1" cx="9.07" cy="25.32" r="1.7"/><path class="cls-1" d="M61.42,17.81l.49,1.05a3.27,3.27,0,0,0,2.88.5l1.64-.5.09-.05-.81-1.94Z"/><path class="cls-2" d="M13.88,3.35V5.23a10.44,10.44,0,0,0-7.19,3.6H1.53L1.05,16l-1,.1V25.8H5.41a3.7,3.7,0,0,0,7.36-.48,3.63,3.63,0,0,0-.42-1.7h1.53V27h1.78V3.35ZM9.07,27a1.7,1.7,0,1,1,1.7-1.69A1.7,1.7,0,0,1,9.07,27Zm4.81-5.39H9.07A3.69,3.69,0,0,0,5.7,23.8H2V17.87l7.18-.71V13h-2v2.36l-4.11.4.33-4.92H13.88Zm0-12.79H9.56a9.44,9.44,0,0,1,4.32-1.58Z"/><path class="cls-3" d="M40.86,22.19v.13s0-.09.07-.13Z"/><polygon class="cls-2" points="40.86 3.85 40.86 5.85 44.43 5.85 45.77 12.17 46.85 12.17 46.85 14.17 45.85 14.17 45.85 16.25 44.29 17.7 40.86 17.7 40.86 20.19 42.28 20.24 42.28 19.7 45.07 19.7 47.85 17.12 47.85 12.44 47.62 11.37 46.55 11.78 45.84 9.91 47.21 9.39 46.84 7.63 46.61 7.72 45.9 5.85 46.42 5.65 46.05 3.85 40.86 3.85"/><path class="cls-2" d="M68.36,18.13l-.68-1.69.09,0-.21-.26L67,14.64,61.56,3.36a1.24,1.24,0,0,0-.1-.2,3.7,3.7,0,0,0-4.53-1.49L48.27,5l-1.84.7-.53.2.71,1.87.23-.09,1.43-.54,9.38-3.56a1.73,1.73,0,0,1,2.11.69L62,9l-3.1-4L48.27,9l-1.06.4-1.37.52.71,1.87,1.07-.41.65-.24,10-3.79,6,7.8-5.71,1.25,1.73,3.7.15.14a5.23,5.23,0,0,0,3.43,1.27,4.87,4.87,0,0,0,1.52-.23l1.64-.5a2.15,2.15,0,0,0,1.3-1.09A1.9,1.9,0,0,0,68.36,18.13Zm-1.93.73-1.64.5a3.27,3.27,0,0,1-2.88-.5l-.49-1.05,4.29-.94.81,1.94Z"/><polygon class="cls-2" points="46.85 14.17 46.85 12.17 45.77 12.17 40.86 12.17 40.86 14.17 45.85 14.17 46.85 14.17"/><path class="cls-2" d="M40.86,22.19h.07s0,.09-.07.13v5.07H44a3.52,3.52,0,1,0-.08-7v-.07l-1.65-.05-1.42,0Zm3.15.17a1.52,1.52,0,1,1-1.51,1.52A1.51,1.51,0,0,1,44,22.36Z"/><path class="cls-2" d="M39.22,30V6.65l-7-6.28L31.83,0H17.41V30ZM19.41,2H30.53V1.2h2V3.33l3.81,3.42H38.7v2H37.22V28H19.41Z"/><polygon class="cls-2" points="37.22 8.75 38.7 8.75 38.7 6.75 36.34 6.75 32.53 6.75 32.53 3.33 32.53 1.21 30.53 1.21 30.53 2 30.53 8.75 37.22 8.75"/><rect class="cls-2" x="21.44" y="6.34" width="7.28" height="2"/><rect class="cls-2" x="21.44" y="10.02" width="7.28" height="2"/><rect class="cls-2" x="21.44" y="13.7" width="13" height="2"/><rect class="cls-2" x="21.44" y="17.39" width="13" height="2"/><rect class="cls-2" x="21.44" y="21.07" width="13" height="2"/></g></g></svg>