<svg xmlns="http://www.w3.org/2000/svg" viewBox="0 0 55.71 28.21"><defs><style>.cls-1{fill:none;stroke:#262320;stroke-miterlimit:10;stroke-width:2px;}</style></defs><g id="Camada_2" data-name="Camada 2"><g id="Camada_1-2" data-name="Camada 1"><path class="cls-1" d="M26,21.2V18.8h3.72l2.37-2.2V12L30.37,3.67h-12v9.08m0-4H2.87A1.8,1.8,0,0,0,1,10.49H1v8.3H16v2.4"/><path class="cls-1" d="M31.42,10.21,45,5.08l8.12,10.53-6.59,1.44,1.22,2.61a4.6,4.6,0,0,0,4.36.91L53.86,20a1.08,1.08,0,0,0,.78-1.43l-1.52-3.75L47.23,2.5s0-.09-.07-.14a3,3,0,0,0-3.62-1.15L31.48,5.78"/><path class="cls-1" d="M21.77,9.16v3.6H32.13M4.4,27.21a2.75,2.75,0,1,0-2.75-2.75A2.75,2.75,0,0,0,4.4,27.21Zm24.63,0a2.75,2.75,0,1,0-2.75-2.75A2.75,2.75,0,0,0,29,27.21ZM5.17,21.71l10-.55,13.7.48M29,27.21H4.29"/></g></g></svg>